<svg xmlns="http://www.w3.org/2000/svg" aria-hidden="true" style="position:absolute;width:0;height:0;overflow:hidden">
  <defs>
    <symbol id="icon-arrow-left" viewBox="0 0 32 32">
      <path fill="#f9af3c" d="M28 16c0 2.205-1.795 4-4 4h-6.352c1.365 1.524 1.305 4.033-.153 5.495a3.999 3.999 0 0 1-5.656 0L2.344 16l9.495-9.495a3.999 3.999 0 0 1 5.656 0c1.46 1.459 1.52 3.972.153 5.495H24c2.205 0 4 1.795 4 4zm-16.781 1.333H24A1.336 1.336 0 0 0 25.275 16 1.336 1.336 0 0 0 24 14.667H11.219l4.391-4.391a1.362 1.362 0 0 0 0-1.886 1.333 1.333 0 0 0-1.886 0l-7.609 7.609 7.609 7.609a1.333 1.333 0 0 0 1.886 0 1.362 1.362 0 0 0 0-1.886l-4.391-4.391z" style="fill:var(--color1, #f9af3c)"/>
    </symbol>
    <symbol id="icon-arrow-right" viewBox="0 0 32 32">
      <path fill="#f9af3c" d="M4 16c0-2.205 1.795-4 4-4h6.352c-1.365-1.524-1.305-4.033.153-5.495a3.999 3.999 0 0 1 5.656 0L29.656 16l-9.495 9.495a3.999 3.999 0 0 1-5.656 0c-1.46-1.459-1.52-3.972-.153-5.495H8c-2.205 0-4-1.795-4-4zm16.781-1.333H8A1.336 1.336 0 0 0 6.725 16 1.334 1.334 0 0 0 8 17.333h12.781l-4.391 4.391a1.364 1.364 0 0 0 0 1.886 1.333 1.333 0 0 0 1.886 0l7.609-7.609-7.609-7.609a1.333 1.333 0 0 0-1.886 0 1.364 1.364 0 0 0 0 1.886l4.391 4.391z" style="fill:var(--color1, #f9af3c)"/>
    </symbol>
    <symbol id="icon-close" viewBox="0 0 32 32">
      <path fill="#6ed3e6" d="m8.533 25.333-1.867-1.867 7.467-7.467-7.467-7.467 1.867-1.867L16 14.132l7.467-7.467 1.867 1.867-7.467 7.467 7.467 7.467-1.867 1.867L16 17.866l-7.467 7.467z" style="fill:var(--color2, #6ed3e6)"/>
    </symbol>
    <symbol id="icon-menu" viewBox="0 0 32 32">
      <path fill="#6ed3e6" d="M4 24v-2h24v2H4zm0-7v-2h24v2H4zm0-7V8h24v2H4z" style="fill:var(--color2, #6ed3e6)"/>
    </symbol>
  </defs>
</svg>
